<svg width="56" height="43" viewBox="0 0 56 43" fill="none" xmlns="http://www.w3.org/2000/svg">
<path fill-rule="evenodd" clip-rule="evenodd" d="M0 21.5C0 9.62588 9.62588 0 21.5 0C33.3741 0 43 9.62588 43 21.5C43 28.4193 39.7314 34.5751 34.6541 38.5078C33.7707 35.921 32.1413 33.6448 29.9618 31.9724C27.5342 30.1097 24.5598 29.1 21.5 29.1C18.4401 29.1 15.4657 30.1097 13.0382 31.9724C10.8587 33.6448 9.22926 35.921 8.3459 38.5078C3.26856 34.5751 0 28.4193 0 21.5ZM28.7442 33.5591C30.7647 35.1095 32.2329 37.2658 32.936 39.7096C29.6237 41.7942 25.7027 43 21.5 43C17.2973 43 13.3762 41.7942 10.0639 39.7096C10.767 37.2658 12.2353 35.1095 14.2557 33.5591C16.334 31.9644 18.8804 31.1 21.5 31.1C24.1196 31.1 26.666 31.9644 28.7442 33.5591ZM16.0499 15.05C16.0499 12.0401 18.49 9.60002 21.4999 9.60002C24.5099 9.60002 26.9499 12.0401 26.9499 15.05C26.9499 18.06 24.5099 20.5 21.4999 20.5C18.49 20.5 16.0499 18.06 16.0499 15.05ZM21.4999 7.60002C17.3854 7.60002 14.0499 10.9355 14.0499 15.05C14.0499 19.1645 17.3854 22.5 21.4999 22.5C25.6144 22.5 28.9499 19.1645 28.9499 15.05C28.9499 10.9355 25.6144 7.60002 21.4999 7.60002Z" fill="#444791"/>
<circle cx="43" cy="22" r="10" fill="white" stroke="white" stroke-width="2"/>
<path fill-rule="evenodd" clip-rule="evenodd" d="M49.364 28.364C45.8492 31.8787 40.1508 31.8787 36.636 28.364C33.1213 24.8493 33.1213 19.1508 36.636 15.6361C40.1508 12.1213 45.8492 12.1213 49.364 15.6361C52.8787 19.1508 52.8787 24.8493 49.364 28.364ZM42 23H37.3431V21H42L42 16.3432H44V21H48.6569L48.6569 23L44 23V27.6569H42V23Z" fill="#444791"/>
</svg>
