<svg width="54" height="44" viewBox="0 0 54 44" fill="none" xmlns="http://www.w3.org/2000/svg">
<path fill-rule="evenodd" clip-rule="evenodd" d="M0.333496 22C0.333496 10.0338 10.034 0.333313 22.0002 0.333313C33.9663 0.333313 43.6668 10.0338 43.6668 22C43.6668 28.9758 40.3701 35.1817 35.2497 39.1446C34.3602 36.5382 32.7188 34.2447 30.5228 32.5597C28.0778 30.6836 25.082 29.6666 22.0002 29.6666C18.9183 29.6666 15.9225 30.6836 13.4775 32.5597C11.2816 34.2447 9.6401 36.5382 8.75058 39.1446C3.63018 35.1817 0.333496 28.9758 0.333496 22ZM29.3053 34.1464C31.3421 35.7093 32.8224 37.883 33.5317 40.3464C30.1923 42.4498 26.2383 43.6666 22.0002 43.6666C17.762 43.6666 13.8081 42.4498 10.4686 40.3464C11.1779 37.883 12.6582 35.7093 14.695 34.1464C16.7908 32.5383 19.3586 31.6666 22.0002 31.6666C24.6418 31.6666 27.2096 32.5383 29.3053 34.1464ZM16.5002 15.5C16.5002 12.4624 18.9626 9.99998 22.0002 9.99998C25.0377 9.99998 27.5002 12.4624 27.5002 15.5C27.5002 18.5375 25.0377 21 22.0002 21C18.9626 21 16.5002 18.5375 16.5002 15.5ZM22.0002 7.99998C17.858 7.99998 14.5002 11.3578 14.5002 15.5C14.5002 19.6421 17.858 23 22.0002 23C26.1423 23 29.5002 19.6421 29.5002 15.5C29.5002 11.3578 26.1423 7.99998 22.0002 7.99998Z" fill="#444791"/>
<rect x="0.833496" y="0.833313" width="42.3333" height="42.3333" rx="21.1667" stroke="#444791"/>
<circle cx="43" cy="22" r="8.25" fill="#E7A11A" stroke="white" stroke-width="2"/>
<rect x="37.5" y="21.0833" width="2.75" height="1.83333" fill="white"/>
<rect x="41.1667" y="21.0833" width="2.75" height="1.83333" fill="white"/>
<rect x="44.8333" y="21.0833" width="2.75" height="1.83333" fill="white"/>
</svg>
