<svg width="55" height="43" viewBox="0 0 55 43" fill="none" xmlns="http://www.w3.org/2000/svg">
<path fill-rule="evenodd" clip-rule="evenodd" d="M0.0288086 21.5C0.0288086 9.62588 9.69893 0 21.573 0C33.4472 0 43.1173 9.62588 43.1173 21.5C43.1173 28.4163 39.8366 34.5698 34.7505 38.5026C33.8648 35.9175 32.2326 33.643 30.0502 31.9718C27.618 30.1094 24.6382 29.1 21.573 29.1C18.5078 29.1 15.5281 30.1094 13.0959 31.9718C10.9134 33.643 9.28123 35.9175 8.39559 38.5026C3.30953 34.5697 0.0288086 28.4162 0.0288086 21.5ZM28.8342 33.5597C30.8571 35.1088 32.3273 37.2624 33.0326 39.7028C29.7109 41.7915 25.7803 43 21.573 43C17.3658 43 13.4352 41.7915 10.1135 39.7027C10.8187 37.2624 12.2889 35.1088 14.3118 33.5597C16.3947 31.9648 18.9471 31.1 21.573 31.1C24.199 31.1 26.7513 31.9648 28.8342 33.5597ZM16.1097 15.05C16.1097 12.042 18.5538 9.60004 21.573 9.60004C24.5922 9.60004 27.0362 12.042 27.0362 15.05C27.0362 18.0581 24.5922 20.5 21.573 20.5C18.5538 20.5 16.1097 18.0581 16.1097 15.05ZM21.573 7.60004C17.4531 7.60004 14.1097 10.9336 14.1097 15.05C14.1097 19.1665 17.4531 22.5 21.573 22.5C25.6929 22.5 29.0362 19.1665 29.0362 15.05C29.0362 10.9336 25.6929 7.60004 21.573 7.60004Z" fill="#444791"/>
<path d="M43.1174 32C48.6485 32 53.1359 27.5248 53.1359 22C53.1359 16.4752 48.6485 12 43.1174 12C37.5863 12 33.0989 16.4752 33.0989 22C33.0989 27.5248 37.5863 32 43.1174 32Z" fill="white" stroke="white" stroke-width="2"/>
<path fill-rule="evenodd" clip-rule="evenodd" d="M52.1359 22C52.1359 26.9706 48.0982 31 43.1174 31C38.1366 31 34.0989 26.9706 34.0989 22C34.0989 17.0294 38.1366 13 43.1174 13C48.0982 13 52.1359 17.0294 52.1359 22ZM43.1174 23.4128L39.817 26.7064L38.4013 25.2936L41.7017 22L38.4013 18.7064L39.817 17.2936L43.1174 20.5872L46.4178 17.2936L47.8335 18.7064L44.5331 22L47.8335 25.2936L46.4178 26.7064L43.1174 23.4128Z" fill="#E71E1E"/>
</svg>
