<svg width="55" height="43" viewBox="0 0 55 43" fill="none" xmlns="http://www.w3.org/2000/svg">
<path fill-rule="evenodd" clip-rule="evenodd" d="M0.0288086 21.5C0.0288086 9.62588 9.69893 0 21.573 0C33.4472 0 43.1173 9.62588 43.1173 21.5C43.1173 28.4163 39.8366 34.5698 34.7505 38.5026C33.8648 35.9175 32.2326 33.643 30.0502 31.9718C27.618 30.1094 24.6382 29.1 21.573 29.1C18.5078 29.1 15.5281 30.1094 13.0959 31.9718C10.9134 33.643 9.28123 35.9175 8.39559 38.5026C3.30953 34.5697 0.0288086 28.4162 0.0288086 21.5ZM28.8342 33.5597C30.8571 35.1088 32.3273 37.2624 33.0326 39.7028C29.7109 41.7915 25.7803 43 21.573 43C17.3658 43 13.4352 41.7915 10.1135 39.7027C10.8187 37.2624 12.2889 35.1088 14.3118 33.5597C16.3947 31.9648 18.9471 31.1 21.573 31.1C24.199 31.1 26.7513 31.9648 28.8342 33.5597ZM16.1097 15.05C16.1097 12.042 18.5538 9.60004 21.573 9.60004C24.5922 9.60004 27.0362 12.042 27.0362 15.05C27.0362 18.0581 24.5922 20.5 21.573 20.5C18.5538 20.5 16.1097 18.0581 16.1097 15.05ZM21.573 7.60004C17.4531 7.60004 14.1097 10.9336 14.1097 15.05C14.1097 19.1665 17.4531 22.5 21.573 22.5C25.6929 22.5 29.0362 19.1665 29.0362 15.05C29.0362 10.9336 25.6929 7.60004 21.573 7.60004Z" fill="#444791"/>
<path d="M43.1174 32C48.6485 32 53.1359 27.5248 53.1359 22C53.1359 16.4752 48.6485 12 43.1174 12C37.5863 12 33.0989 16.4752 33.0989 22C33.0989 27.5248 37.5863 32 43.1174 32Z" fill="white" stroke="white" stroke-width="2"/>
<path fill-rule="evenodd" clip-rule="evenodd" d="M43.1174 31C48.0982 31 52.1359 26.9706 52.1359 22C52.1359 17.0294 48.0982 13 43.1174 13C38.1366 13 34.0989 17.0294 34.0989 22C34.0989 26.9706 38.1366 31 43.1174 31ZM47.8932 19.641C48.2472 19.217 48.1905 18.5864 47.7666 18.2324C47.3427 17.8784 46.7121 17.9351 46.3581 18.359L42.7486 22.6814C42.4021 23.0964 42.2074 23.326 42.052 23.4672L42.046 23.4725L42.0396 23.4677C41.8721 23.3413 41.6574 23.1302 41.2747 22.7483L39.8156 21.2922C39.4246 20.902 38.7915 20.9027 38.4013 21.2936C38.0112 21.6845 38.0119 22.3177 38.4028 22.7078L39.8619 24.164L39.9028 24.2047C40.229 24.5304 40.5428 24.8437 40.8349 25.0641C41.162 25.311 41.5903 25.5431 42.1389 25.5182C42.6874 25.4933 43.0929 25.2234 43.3964 24.9479C43.6672 24.702 43.9515 24.3615 44.2468 24.0076L44.2468 24.0076L44.2838 23.9634L47.8932 19.641Z" fill="#1AAC4C"/>
</svg>
